<?xml version="1.0" encoding="UTF-8"?><svg id="Capa_2" xmlns="http://www.w3.org/2000/svg" viewBox="0 0 1726.67 1726.67"><defs><style>.cls-1{fill:#fff;opacity:.2;}</style></defs><g id="Capa_1-2"><path class="cls-1" d="M1305.13,0l-441.8,863.33L1193,0h112.13ZM0,819.6l863.33,43.73L0,725.05v94.56ZM998.52,0l-135.19,863.33L1096.28,0h-97.76ZM1726.67,300.53l-863.33,562.81,863.33-437.99v-124.82ZM1726.67,530.2l-863.33,333.14,863.33-229.71v-103.43ZM1726.67,0h-3.02l-860.32,863.33L1726.67,166.72V0ZM1726.67,725.05l-863.33,138.29,863.33-43.73v-94.56ZM1421.84,0l-558.51,863.33L1564.95,0h-143.11ZM0,425.34l863.33,437.99L0,300.53v124.82ZM0,0v166.72l863.33,696.61L3.02,0H0ZM0,633.62l863.33,229.71L0,530.2v103.43ZM630.38,0l232.95,863.33L728.14,0h-97.76ZM421.54,0l441.8,863.33L533.66,0h-112.13ZM161.71,0l701.62,863.33L304.82,0h-143.11ZM816.57,0l46.76,863.33L910.09,0h-93.52ZM304.82,1726.67l558.51-863.33L161.71,1726.67h143.11ZM0,1726.67h3.02l860.32-863.33L0,1559.95v166.72ZM728.14,1726.67l135.19-863.33-232.95,863.33h97.76ZM533.66,1726.67l329.67-863.33-441.8,863.33h112.13ZM0,1426.14l863.33-562.81L0,1301.32v124.82ZM0,1001.62l863.33-138.29L0,907.06v94.56ZM0,1196.47l863.33-333.14L0,1093.04v103.43ZM910.09,1726.67l-46.76-863.33-46.76,863.33h93.52ZM1726.67,907.06l-863.33-43.73,863.33,138.29v-94.56ZM1726.67,1726.67v-166.72l-863.33-696.61,860.32,863.33h3.02ZM1726.67,1093.04l-863.33-229.71,863.33,333.14v-103.43ZM1726.67,1301.32l-863.33-437.99,863.33,562.81v-124.82ZM1564.95,1726.67l-701.62-863.33,558.51,863.33h143.11ZM1096.28,1726.67l-232.95-863.33,135.19,863.33h97.76ZM1305.13,1726.67l-441.8-863.33,329.67,863.33h112.13Z"/></g></svg>